<svg width="65" height="65" viewBox="0 0 65 65" fill="none" xmlns="http://www.w3.org/2000/svg">
<g clip-path="url(#clip0_3_458)">
<path d="M32.5 64.9199C50.1731 64.9199 64.5 50.593 64.5 32.9199C64.5 15.2468 50.1731 0.919922 32.5 0.919922C14.8269 0.919922 0.5 15.2468 0.5 32.9199C0.5 50.593 14.8269 64.9199 32.5 64.9199Z" fill="#19C37C"/>
<path d="M36.8636 23.9199C37.4661 23.9199 37.9545 24.4083 37.9545 25.0108V29.5926L43.6418 25.6116C43.8885 25.4388 44.2287 25.4988 44.4014 25.7456C44.4655 25.8373 44.5 25.9465 44.5 26.0584V39.2359C44.5 39.5371 44.2557 39.7814 43.9545 39.7814C43.8426 39.7814 43.7334 39.7469 43.6418 39.6828L37.9545 35.7017V40.2835C37.9545 40.886 37.4661 41.3744 36.8636 41.3744H21.5909C20.9884 41.3744 20.5 40.886 20.5 40.2835V25.0108C20.5 24.4083 20.9884 23.9199 21.5909 23.9199H36.8636ZM35.7727 26.1017H22.6818V39.1926H35.7727V26.1017ZM27.4818 29.1875C27.5648 29.1875 27.6461 29.2112 27.7161 29.2558L32.4669 32.279C32.6703 32.4084 32.7302 32.6782 32.6008 32.8815C32.5665 32.9353 32.5208 32.981 32.4669 33.0154L27.7161 36.0386C27.5128 36.168 27.2431 36.1081 27.1137 35.9047C27.0691 35.8347 27.0455 35.7534 27.0455 35.6704V29.6239C27.0455 29.3829 27.2408 29.1875 27.4818 29.1875ZM42.3182 29.2013L37.9545 32.2555V33.0388L42.3182 36.093V29.2013Z" fill="white"/>
</g>
<defs>
<clipPath id="clip0_3_458">
<rect width="64" height="64" fill="white" transform="translate(0.5 0.919922)"/>
</clipPath>
</defs>
</svg>
