<svg width="65" height="65" viewBox="0 0 65 65" fill="none" xmlns="http://www.w3.org/2000/svg">
<g clip-path="url(#clip0_3_483)">
<path d="M0.5 32.5195C0.5 14.8465 14.827 0.519531 32.5 0.519531C50.173 0.519531 64.5 14.8465 64.5 32.5195C64.5 50.1925 50.173 64.5195 32.5 64.5195C14.827 64.5195 0.5 50.1925 0.5 32.5195Z" fill="#575FEF"/>
<path d="M36.864 23.5195C37.466 23.5195 37.955 24.0075 37.955 24.6105V29.1925L43.642 25.2115C43.889 25.0385 44.229 25.0985 44.401 25.3455C44.465 25.4365 44.5 25.5465 44.5 25.6585V38.8355C44.5 39.1365 44.256 39.3805 43.955 39.3805C43.843 39.3805 43.733 39.3465 43.642 39.2825L37.955 35.3015V39.8835C37.955 40.4855 37.466 40.9745 36.864 40.9745H21.591C20.988 40.9745 20.5 40.4855 20.5 39.8835V24.6105C20.5 24.0075 20.988 23.5195 21.591 23.5195H36.864ZM35.773 25.7015H22.682V38.7925H35.773V25.7015ZM27.482 28.7875C27.565 28.7875 27.646 28.8105 27.716 28.8555L32.467 31.8785C32.67 32.0085 32.73 32.2775 32.601 32.4815C32.566 32.5345 32.521 32.5805 32.467 32.6155L27.716 35.6385C27.513 35.7675 27.243 35.7075 27.114 35.5045C27.069 35.4345 27.045 35.3535 27.045 35.2705V29.2235C27.045 28.9825 27.241 28.7875 27.482 28.7875ZM42.318 28.8005L37.955 31.8555V32.6385L42.318 35.6925V28.8005Z" fill="white"/>
</g>
<defs>
<clipPath id="clip0_3_483">
<rect width="64" height="64" fill="white" transform="translate(0.5 0.519531)"/>
</clipPath>
</defs>
</svg>
